# xmcd
#
# Track frame offsets:
#	150
#	13292
#	26205
#	37885
#	49224
#	61023
#	75686
#	89686
#	101873
#	115377
#	126569
#	136950
#	146888
#	159741
#	170411
#	181246
#	191880
#	202179
#	215534
#	227702
#
# Disc length: 3153 seconds
#
# Revision: 1
# Processed by: cddbd v1.5.1PL2 Copyright (c) Steve Scherf et al.
# Submitted via: audiograbber 1.83.01
#
DISCID=350c4f14
DTITLE=Various Artist - Country Heaven - Their Music Lives On
DYEAR=1900
DGENRE=Country
TTITLE0=Hank Williams - Jambalaya (On The Bayou)
TTITLE1=Hank Snow - I'm Movin' On
TTITLE2=Patsy Cline - Walking After Midnight
TTITLE3=Jim Reeves - Just Call Me Lonesome
TTITLE4=Tennessee Ernie Ford - Shotgun Boogie, The
TTITLE5=Webb Pierce - Wondering
TTITLE6=Letfy Frizzell - Always Late (With Your Kisses)
TTITLE7=Waylon Jennings - Don't Think Twice, It's All Right
TTITLE8=Tammy Wynette - 'till I Can Make It On My Own
TTITLE9=Conway Twitty - It's Only Make Believe
TTITLE10=Faron Young - Hello Walls
TTITLE11=Boxcar Willie - King Of The Road
TTITLE12=Merle Travis - Sixteen Tons
TTITLE13=Roger Miller - Husbands And Wives
TTITLE14=Charlie Rich - There Won't Be Anymore
TTITLE15=Johnny Russell - Act Naturally
TTITLE16=Johnny Darrell - Ruby Don't Take Your Love To Town
TTITLE17=George Morgan - Candy Kisses
TTITLE18=Johnny Paycheck - Take This Job And Shove It
TTITLE19=Bob Luman - Let's Think About Living
EXTD=
EXTT0=
EXTT1=
EXTT2=
EXTT3=
EXTT4=
EXTT5=
EXTT6=
EXTT7=
EXTT8=
EXTT9=
EXTT10=
EXTT11=
EXTT12=
EXTT13=
EXTT14=
EXTT15=
EXTT16=
EXTT17=
EXTT18=
EXTT19=
PLAYORDER=
